<!DOCTYPE svg PUBLIC "-//W3C//DTD SVG 1.1//EN" "http://www.w3.org/Graphics/SVG/1.1/DTD/svg11.dtd">
<!-- Uploaded to: SVG Repo, www.svgrepo.com, Transformed by: SVG Repo Mixer Tools -->
<svg width="800px" height="800px" viewBox="-3.2 -3.2 38.40 38.40" xmlns="http://www.w3.org/2000/svg" fill="none">
<g id="SVGRepo_bgCarrier" stroke-width="0">
<path transform="translate(-3.2, -3.2), scale(2.4)" fill="#cde6ea" d="M9.166.33a2.25 2.25 0 00-2.332 0l-5.25 3.182A2.25 2.25 0 00.5 5.436v5.128a2.25 2.25 0 001.084 1.924l5.25 3.182a2.25 2.25 0 002.332 0l5.25-3.182a2.25 2.25 0 001.084-1.924V5.436a2.25 2.25 0 00-1.084-1.924L9.166.33z" strokewidth="0"/>
</g>
<g id="SVGRepo_tracerCarrier" stroke-linecap="round" stroke-linejoin="round"/>
<g id="SVGRepo_iconCarrier"> <path fill="#006776" fill-rule="evenodd" d="M26.207 9.293a1 1 0 010 1.414l-1.625 1.625a1 1 0 01-1.414-1.414l1.625-1.625a1 1 0 011.414 0zm-4.875 4.875a1 1 0 010 1.414l-3.25 3.25a1 1 0 01-1.414-1.414l3.25-3.25a1 1 0 011.414 0zm-15.54 2.125a1 1 0 011.415 0l1.5 1.5a1 1 0 11-1.414 1.414l-1.5-1.5a1 1 0 010-1.414zm9.04 4.375a1 1 0 010 1.414l-1.625 1.625a1 1 0 01-1.414 0l-1.5-1.5a1 1 0 111.414-1.414l.793.793.918-.918a1 1 0 011.414 0z" clip-rule="evenodd"/> </g>
</svg>